<?xml version="1.0" encoding="UTF-8" standalone="no"?>
<!DOCTYPE svg PUBLIC "-//W3C//DTD SVG 1.1//EN" "http://www.w3.org/Graphics/SVG/1.1/DTD/svg11.dtd">
<svg width="100%" height="100%" viewBox="0 0 946 411" version="1.1" xmlns="http://www.w3.org/2000/svg" xmlns:xlink="http://www.w3.org/1999/xlink" xml:space="preserve" xmlns:serif="http://www.serif.com/" style="fill-rule:evenodd;clip-rule:evenodd;stroke-linejoin:round;stroke-miterlimit:2;">
    <g transform="matrix(1,0,0,1,-77.0713,-61.5551)">
        <g>
            <g transform="matrix(1.95298,0,0,4.68258,-638.454,-3368.21)">
                <g>
                    <g transform="matrix(1,0,0,0.417074,-1273.58,172.031)">
                        <path d="M1712,1495.98L1696.01,1512.32C1692.92,1515.47 1692.98,1520.54 1696.13,1523.63C1699.29,1526.72 1704.36,1526.66 1707.44,1523.51L1753.26,1476.71C1754.8,1475.32 1762.26,1468.17 1767.49,1456.49C1770.49,1449.77 1772.76,1441.55 1772.76,1432.09C1772.76,1418.89 1768.86,1409.13 1761.6,1399.45C1755.29,1391.03 1746.15,1382.62 1734.68,1371.37L1748.11,1357.63C1751.19,1354.48 1751.13,1349.41 1747.98,1346.32C1744.82,1343.24 1739.75,1343.29 1736.66,1346.45L1693.43,1390.67C1691.89,1392.07 1684.42,1399.22 1679.2,1410.89C1676.2,1417.62 1673.93,1425.83 1673.93,1435.29C1673.93,1448.55 1677.54,1457.96 1684.44,1467.29C1690.67,1475.7 1699.93,1484.09 1712,1495.98ZM1723.5,1382.8L1704.68,1402.05C1704.53,1402.21 1704.36,1402.36 1704.2,1402.51C1704.2,1402.51 1698.04,1407.95 1693.81,1417.42C1691.61,1422.35 1689.93,1428.36 1689.93,1435.29C1689.93,1444.61 1692.45,1451.22 1697.31,1457.77C1703.15,1465.67 1711.89,1473.46 1723.19,1484.55L1742.01,1465.33C1742.16,1465.17 1742.32,1465.02 1742.49,1464.88C1742.49,1464.88 1748.64,1459.43 1752.88,1449.95C1755.08,1445.03 1756.76,1439.02 1756.76,1432.09C1756.76,1422.76 1753.92,1415.89 1748.8,1409.05C1742.87,1401.13 1734.25,1393.3 1723.5,1382.8Z" style="fill:rgb(54,130,245);"/>
                    </g>
                    <g transform="matrix(1,0,0,0.417074,-533.963,311.82)">
                        <path d="M908.934,1008.53L935.648,1008.53L908.934,1031.36L908.934,1008.53Z" style="fill:rgb(54,130,245);"/>
                    </g>
                    <g transform="matrix(6.40884,0,0,2.67296,-2043.2,-79.7976)">
                        <path d="M390.294,319.583C390.294,318.599 391.093,317.799 392.077,317.799C392.166,317.799 392.252,317.812 392.338,317.825C392.2,316.143 390.806,314.814 389.088,314.814C387.28,314.814 385.812,316.282 385.812,318.091C385.812,319.899 387.28,321.367 389.088,321.367C389.73,321.367 390.324,321.175 390.83,320.856C390.5,320.532 390.294,320.082 390.294,319.583Z" style="fill:rgb(102,178,255);fill-rule:nonzero;"/>
                    </g>
                    <g transform="matrix(0.512038,0,0,0.213558,326.913,719.306)">
                        <path d="M240.866,61.589L408.665,61.589L408.665,227.306C408.665,383.484 240.045,471.937 240.045,471.937L230.245,461.399L137.724,361.919L240.045,421.071C266.192,408.855 378.213,349.44 378.213,227.306L378.213,91.716L240.045,91.716L240.045,91.711C166.703,91.866 107.206,151.458 107.206,224.838C107.206,227.52 107.285,230.183 107.465,232.817C112.765,354.391 240.333,373.627 240.333,373.627L231.937,373.415C145.719,369.031 77.071,312.124 77.071,224.838C77.071,134.731 150.227,61.576 240.333,61.576L240.866,61.589Z" style="fill:rgb(75,76,76);fill-rule:nonzero;"/>
                    </g>
                </g>
            </g>
            <g transform="matrix(0.670304,0,0,0.670304,-57.2563,-486.643)">
                <text x="724.44px" y="1003.02px" style="font-family:'LucidaGrande', 'Lucida Grande', sans-serif;font-weight:500;font-size:250px;fill:rgb(77,77,77);">S</text>
                <text x="856.584px" y="1003.02px" style="font-family:'LucidaGrande', 'Lucida Grande', sans-serif;font-weight:500;font-size:250px;fill:rgb(77,77,77);">W</text>
                <text x="1107.95px" y="1003.02px" style="font-family:'LucidaGrande', 'Lucida Grande', sans-serif;font-weight:500;font-size:250px;fill:rgb(77,77,77);">S</text>
                <text x="1225.1px" y="1003.02px" style="font-family:'LucidaGrande', 'Lucida Grande', sans-serif;font-weight:500;font-size:250px;fill:rgb(77,77,77);">I</text>
                <text x="1274.62px" y="1003.02px" style="font-family:'LucidaGrande', 'Lucida Grande', sans-serif;font-weight:500;font-size:250px;fill:rgb(77,77,77);">M</text>
                <text x="1477.45px" y="1003.02px" style="font-family:'LucidaGrande', 'Lucida Grande', sans-serif;font-weight:500;font-size:250px;fill:rgb(77,77,77);">S</text>
                <text x="1190.76px" y="1143.02px" style="font-family:'LucidaGrande', 'Lucida Grande', sans-serif;font-weight:500;font-size:160px;fill:rgb(77,77,77);">s<tspan x="1261.13px " y="1143.02px ">a</tspan></text>
                <text x="1338.29px" y="1143.02px" style="font-family:'LucidaGrande', 'Lucida Grande', sans-serif;font-weight:500;font-size:160px;fill:rgb(77,77,77);">f</text>
                <text x="1389.11px" y="1143.02px" style="font-family:'LucidaGrande', 'Lucida Grande', sans-serif;font-weight:500;font-size:160px;fill:rgb(77,77,77);">e</text>
                <text x="1467.05px" y="1143.02px" style="font-family:'LucidaGrande', 'Lucida Grande', sans-serif;font-weight:500;font-size:160px;fill:rgb(77,77,77);">t</text>
                <text x="1528.5px" y="1143.02px" style="font-family:'LucidaGrande', 'Lucida Grande', sans-serif;font-weight:500;font-size:160px;fill:rgb(77,77,77);">y</text>
            </g>
        </g>
    </g>
</svg>
