<?xml version="1.0" encoding="UTF-8" standalone="no"?>
<!DOCTYPE svg PUBLIC "-//W3C//DTD SVG 1.1//EN" "http://www.w3.org/Graphics/SVG/1.1/DTD/svg11.dtd">
<svg width="100%" height="100%" viewBox="0 0 332 411" version="1.1" xmlns="http://www.w3.org/2000/svg" xmlns:xlink="http://www.w3.org/1999/xlink" xml:space="preserve" xmlns:serif="http://www.serif.com/" style="fill-rule:evenodd;clip-rule:evenodd;stroke-linejoin:round;stroke-miterlimit:2;">
    <g transform="matrix(1,0,0,1,-402.127,-334.82)">
        <g>
            <g transform="matrix(1.95298,0,0,1.95298,-2800.67,-2289.4)">
                <path d="M1712,1495.98L1696.01,1512.32C1692.92,1515.47 1692.98,1520.54 1696.13,1523.63C1699.29,1526.72 1704.36,1526.66 1707.44,1523.51L1753.26,1476.71C1754.8,1475.32 1762.26,1468.17 1767.49,1456.49C1770.49,1449.77 1772.76,1441.55 1772.76,1432.09C1772.76,1418.89 1768.86,1409.13 1761.6,1399.45C1755.29,1391.03 1746.15,1382.62 1734.68,1371.37L1748.11,1357.63C1751.19,1354.48 1751.13,1349.41 1747.98,1346.32C1744.82,1343.24 1739.75,1343.29 1736.66,1346.45L1693.43,1390.67C1691.89,1392.07 1684.42,1399.22 1679.2,1410.89C1676.2,1417.62 1673.93,1425.83 1673.93,1435.29C1673.93,1448.55 1677.54,1457.96 1684.44,1467.29C1690.67,1475.7 1699.93,1484.09 1712,1495.98ZM1723.5,1382.8L1704.68,1402.05C1704.53,1402.21 1704.36,1402.36 1704.2,1402.51C1704.2,1402.51 1698.04,1407.95 1693.81,1417.42C1691.61,1422.35 1689.93,1428.36 1689.93,1435.29C1689.93,1444.61 1692.45,1451.22 1697.31,1457.77C1703.15,1465.67 1711.89,1473.46 1723.19,1484.55L1742.01,1465.33C1742.16,1465.17 1742.32,1465.02 1742.49,1464.88C1742.49,1464.88 1748.64,1459.43 1752.88,1449.95C1755.08,1445.03 1756.76,1439.02 1756.76,1432.09C1756.76,1422.76 1753.92,1415.89 1748.8,1409.05C1742.87,1401.13 1734.25,1393.3 1723.5,1382.8Z" style="fill:rgb(54,130,245);"/>
            </g>
            <g transform="matrix(1.95298,0,0,1.95298,-1356.22,-1634.82)">
                <path d="M908.934,1008.53L935.648,1008.53L908.934,1031.36L908.934,1008.53Z" style="fill:rgb(54,130,245);"/>
            </g>
            <g transform="matrix(12.5163,0,0,12.5164,-4303.73,-3468.6)">
                <path d="M390.294,319.583C390.294,318.599 391.093,317.799 392.077,317.799C392.166,317.799 392.252,317.812 392.338,317.825C392.2,316.143 390.806,314.814 389.088,314.814C387.28,314.814 385.812,316.282 385.812,318.091C385.812,319.899 387.28,321.367 389.088,321.367C389.73,321.367 390.324,321.175 390.83,320.856C390.5,320.532 390.294,320.082 390.294,319.583Z" style="fill:rgb(102,178,255);fill-rule:nonzero;"/>
            </g>
            <g transform="matrix(12.5163,0,0,12.5164,565.152,745.199)">
                <path d="M13.468,-32.785L-0.004,-32.785L-0.004,-30.378L11.035,-30.378L11.035,-19.545C11.035,-9.787 2.085,-5.04 -0.004,-4.064L-8.179,-8.79L-0.787,-0.842L-0.004,0C-0.004,0 13.468,-7.067 13.468,-19.545L13.468,-32.785Z" style="fill:rgb(75,76,76);fill-rule:nonzero;"/>
            </g>
            <g transform="matrix(2.46404,0,0,2.46404,-3660.18,-2051.75)">
                <path d="M1711.49,1095.13C1676.5,1093.35 1648.64,1070.25 1648.64,1034.83C1648.64,998.259 1678.33,968.57 1714.9,968.57L1715.18,968.577L1714.9,968.577L1714.9,980.799C1685.08,980.799 1660.87,1005.01 1660.87,1034.83C1660.87,1035.92 1660.9,1037 1660.98,1038.07C1663.13,1087.4 1714.9,1095.21 1714.9,1095.21L1711.49,1095.13Z" style="fill:rgb(77,77,77);"/>
            </g>
        </g>
    </g>
</svg>
