<?xml version="1.0" encoding="UTF-8" standalone="no"?>
<!DOCTYPE svg PUBLIC "-//W3C//DTD SVG 1.1//EN" "http://www.w3.org/Graphics/SVG/1.1/DTD/svg11.dtd">
<svg width="100%" height="100%" viewBox="0 0 1920 1080" version="1.1" xmlns="http://www.w3.org/2000/svg" xmlns:xlink="http://www.w3.org/1999/xlink" xml:space="preserve" xmlns:serif="http://www.serif.com/" style="fill-rule:evenodd;clip-rule:evenodd;stroke-linejoin:round;stroke-miterlimit:2;">
    <rect id="Artboard1" x="0" y="0" width="1920" height="1080" style="fill:none;"/>
    <g id="Artboard11" serif:id="Artboard1">
        <g transform="matrix(1.95298,0,0,1.95298,-313.398,-514.609)">
            <g transform="matrix(1,0,0,2.39766,0,-1321.23)">
                <g transform="matrix(1,0,0,0.417074,-1273.58,172.031)">
                    <path d="M1712,1495.98L1696.01,1512.32C1692.92,1515.47 1692.98,1520.54 1696.13,1523.63C1699.29,1526.72 1704.36,1526.66 1707.44,1523.51L1753.26,1476.71C1754.8,1475.32 1762.26,1468.17 1767.49,1456.49C1770.49,1449.77 1772.76,1441.55 1772.76,1432.09C1772.76,1418.89 1768.86,1409.13 1761.6,1399.45C1755.29,1391.03 1746.15,1382.62 1734.68,1371.37L1748.11,1357.63C1751.19,1354.48 1751.13,1349.41 1747.98,1346.32C1744.82,1343.24 1739.75,1343.29 1736.66,1346.45L1693.43,1390.67C1691.89,1392.07 1684.42,1399.22 1679.2,1410.89C1676.2,1417.62 1673.93,1425.83 1673.93,1435.29C1673.93,1448.55 1677.54,1457.96 1684.44,1467.29C1690.67,1475.7 1699.93,1484.09 1712,1495.98ZM1723.5,1382.8L1704.68,1402.05C1704.53,1402.21 1704.36,1402.36 1704.2,1402.51C1704.2,1402.51 1698.04,1407.95 1693.81,1417.42C1691.61,1422.35 1689.93,1428.36 1689.93,1435.29C1689.93,1444.61 1692.45,1451.22 1697.31,1457.77C1703.15,1465.67 1711.89,1473.46 1723.19,1484.55L1742.01,1465.33C1742.16,1465.17 1742.32,1465.02 1742.49,1464.88C1742.49,1464.88 1748.64,1459.43 1752.88,1449.95C1755.08,1445.03 1756.76,1439.02 1756.76,1432.09C1756.76,1422.76 1753.92,1415.89 1748.8,1409.05C1742.87,1401.13 1734.25,1393.3 1723.5,1382.8Z" style="fill:rgb(54,130,245);"/>
                </g>
                <g transform="matrix(1,0,0,0.417074,-533.963,311.82)">
                    <path d="M908.934,1008.53L935.648,1008.53L908.934,1031.36L908.934,1008.53Z" style="fill:rgb(54,130,245);"/>
                </g>
                <g transform="matrix(6.40884,0,0,2.67296,-2043.2,-79.7976)">
                    <path d="M390.294,319.583C390.294,318.599 391.093,317.799 392.077,317.799C392.166,317.799 392.252,317.812 392.338,317.825C392.2,316.143 390.806,314.814 389.088,314.814C387.28,314.814 385.812,316.282 385.812,318.091C385.812,319.899 387.28,321.367 389.088,321.367C389.73,321.367 390.324,321.175 390.83,320.856C390.5,320.532 390.294,320.082 390.294,319.583Z" style="fill:rgb(102,178,255);fill-rule:nonzero;"/>
                </g>
                <g transform="matrix(6.40884,0,0,2.67296,449.851,820.091)">
                    <path d="M13.468,-32.785L-0.004,-32.785L-0.004,-30.378L11.035,-30.378L11.035,-19.545C11.035,-9.787 2.085,-5.04 -0.004,-4.064L-8.179,-8.79L-0.787,-0.842L-0.004,0C-0.004,0 13.468,-7.067 13.468,-19.545L13.468,-32.785Z" style="fill:rgb(75,76,76);fill-rule:nonzero;"/>
                </g>
                <g transform="matrix(1.26168,0,0,0.526213,-1713.68,222.782)">
                    <path d="M1711.49,1095.13C1676.5,1093.35 1648.64,1070.25 1648.64,1034.83C1648.64,998.259 1678.33,968.57 1714.9,968.57L1715.18,968.577L1714.9,968.577L1714.9,980.799C1685.08,980.799 1660.87,1005.01 1660.87,1034.83C1660.87,1035.92 1660.9,1037 1660.98,1038.07C1663.13,1087.4 1714.9,1095.21 1714.9,1095.21L1711.49,1095.13Z" style="fill:rgb(77,77,77);"/>
                </g>
            </g>
            <g transform="matrix(10.4205,0,0,10.4205,-4663.12,-491.501)">
                <path d="M503.923,103.619C502.983,103.619 501.782,103.414 500.319,103.004L500.319,101.036C501.895,101.768 503.192,102.134 504.207,102.134C504.989,102.134 505.618,101.929 506.095,101.519C506.571,101.109 506.809,100.57 506.809,99.901C506.809,99.352 506.653,98.886 506.341,98.501C506.028,98.116 505.453,97.687 504.614,97.214L503.649,96.656C502.457,95.975 501.616,95.333 501.128,94.73C500.639,94.128 500.394,93.426 500.394,92.625C500.394,91.547 500.785,90.659 501.567,89.962C502.35,89.265 503.346,88.917 504.557,88.917C505.636,88.917 506.774,89.096 507.973,89.456L507.973,91.272C506.497,90.692 505.396,90.402 504.671,90.402C503.983,90.402 503.416,90.585 502.968,90.951C502.52,91.317 502.296,91.777 502.296,92.332C502.296,92.799 502.46,93.212 502.788,93.571C503.116,93.931 503.715,94.36 504.586,94.858L505.588,95.426C506.799,96.113 507.645,96.763 508.124,97.375C508.603,97.987 508.843,98.722 508.843,99.579C508.843,100.797 508.394,101.774 507.495,102.512C506.596,103.25 505.406,103.619 503.923,103.619Z" style="fill:rgb(77,77,77);fill-rule:nonzero;"/>
                <rect x="510.249" y="89.267" width="1.987" height="14.003" style="fill:rgb(77,77,77);fill-rule:nonzero;"/>
                <path d="M514.097,103.269L514.097,89.267L516.85,89.267L520.729,100.1L524.722,89.267L527.182,89.267L527.182,103.269L525.327,103.269L525.327,91.878L521.467,102.333L519.547,102.333L515.8,91.85L515.8,103.269L514.097,103.269Z" style="fill:rgb(77,77,77);fill-rule:nonzero;"/>
                <path d="M532.561,103.619C531.622,103.619 530.42,103.414 528.957,103.004L528.957,101.036C530.534,101.768 531.83,102.134 532.845,102.134C533.627,102.134 534.257,101.929 534.733,101.519C535.209,101.109 535.447,100.57 535.447,99.901C535.447,99.352 535.291,98.886 534.979,98.501C534.667,98.116 534.091,97.687 533.252,97.214L532.287,96.656C531.095,95.975 530.254,95.333 529.766,94.73C529.277,94.128 529.032,93.426 529.032,92.625C529.032,91.547 529.423,90.659 530.206,89.962C530.988,89.265 531.984,88.917 533.195,88.917C534.274,88.917 535.412,89.096 536.611,89.456L536.611,91.272C535.135,90.692 534.034,90.402 533.309,90.402C532.621,90.402 532.054,90.585 531.606,90.951C531.158,91.317 530.934,91.777 530.934,92.332C530.934,92.799 531.098,93.212 531.426,93.571C531.754,93.931 532.353,94.36 533.224,94.858L534.227,95.426C535.438,96.113 536.283,96.763 536.762,97.375C537.242,97.987 537.481,98.722 537.481,99.579C537.481,100.797 537.032,101.774 536.133,102.512C535.234,103.25 534.044,103.619 532.561,103.619Z" style="fill:rgb(77,77,77);fill-rule:nonzero;"/>
            </g>
        </g>
    </g>
</svg>
